# xmcd
#
# Track frame offsets:
#	150
#	14587
#	27662
#	41584
#	53390
#	65376
#	83866
#	97070
#	113873
#	130607
#	145970
#	166297
#	183928
#	205815
#	229406
#	246038
#	265719
#	284931
#	301735
#	317451
#
# Disc length: 4432 seconds
#
# Revision: 1
# Processed by: cddbd v1.5.2PL0 Copyright (c) Steve Scherf et al.
# Submitted via: EasyCDDAExtractor 5.1.0
#
DISCID=19114e14
DTITLE=Stevie Wonder - Number Ones
DYEAR=2007
DGENRE=Soul
TTITLE0=Fingertips Pt.2
TTITLE1=Uptight (Everything's Alright)
TTITLE2=Blowin' in the Wind
TTITLE3=I was mde to Love Her
TTITLE4=Signed, Sealed, Delevered I'm yours
TTITLE5=Superstition
TTITLE6=You are the Sunshine of my Life
TTITLE7=Higher Ground
TTITLE8=Lining for the City
TTITLE9=You haven't done Nothing
TTITLE10=I Whish
TTITLE11=Sir Duke
TTITLE12=Master Blaster (Jammin')
TTITLE13=That Girl
TTITLE14=Ebony and Ivory
TTITLE15=I just Called to say I love you
TTITLE16=That's what friends are for
TTITLE17=Part-Time Lover
TTITLE18=As
TTITLE19=Isn't She Lovely
EXTD=
EXTT0=
EXTT1=
EXTT2=
EXTT3=
EXTT4=
EXTT5=
EXTT6=
EXTT7=
EXTT8=
EXTT9=
EXTT10=
EXTT11=
EXTT12=
EXTT13=
EXTT14=
EXTT15=
EXTT16=
EXTT17=
EXTT18=
EXTT19=
PLAYORDER=
